<?xml version="1.0" encoding="UTF-8"?>
<svg id="Layer_2" data-name="Layer 2" xmlns="http://www.w3.org/2000/svg" viewBox="0 0 800 106.89">
  <defs>
    <style>
      .cls-1 {
        fill: #000216;
      }
    </style>
  </defs>
  <g id="Layer_1-2" data-name="Layer 1">
    <path class="cls-1" d="M795.27,61.79c-11.56-1.17-23.82-10.53-32.24-18.32l-.85-.82-.03-.03c-2.65-2.75-7.5-1.2-8.04,2.6-1.64,10.11-6.84,19.76-12.49,28.42-1.42,2.14-2.9,4.24-4.43,6.32.01-.05.02-.09.04-.14,5.86-22.62,7.34-46.39,4.01-69.53-.32-2.13-.71-4.38-1.18-6.49-1.24-5.2-8.66-4.77-9.29.54-.62,6.23-1.67,12.4-3.24,18.43-3.31,12.66-8.8,24.97-16.65,35.47.06-6.7-1.11-13.44-3.15-19.77-1.3-3.93-6.81-4.33-8.64-.57-4.19,8.65-9.79,16-18.52,20.41-7.85,3.96-16.86,5.69-25.61,5.69-6.02,0-11.87-.67-17.5-2.01,0,0,0,0-.01,0-.19-.04-.38-.09-.57-.14,0,0-.01,0-.02,0-6.46-1.58-12.63-4.04-18.48-7.37-.76-.43-1.49-.87-2.19-1.3,0,0-.01-.01-.02-.01-4.44-3.05-8.54-6.51-12-9.71l-.85-.82-.03-.03c-2.65-2.75-7.5-1.2-8.04,2.6-1.64,10.11-6.84,19.76-12.49,28.42-1.42,2.14-2.9,4.24-4.43,6.32.01-.05.03-.09.04-.14,5.86-22.62,7.33-46.39,4.01-69.53-.32-2.13-.71-4.38-1.18-6.49-1.25-5.2-8.66-4.77-9.29.54-.62,6.23-1.67,12.4-3.24,18.43-3.31,12.66-8.8,24.97-16.65,35.47.06-6.7-1.11-13.44-3.15-19.77-1.3-3.93-6.81-4.33-8.64-.57-7.53,15.53-22.93,25.18-40.08,26.05-3.19.16-6.44.07-9.62-.15-8.83-.62-17.53-2.81-25.58-6.53-1.85-.86-3.67-1.79-5.44-2.8-1.83-1.04-3.48-2.08-4.94-3.08-.04-.02-.07-.05-.11-.07-3.45-2.56-6.65-5.3-9.42-7.87l-.85-.82-.03-.03c-2.65-2.75-7.5-1.2-8.04,2.6-1.64,10.11-6.84,19.76-12.49,28.42-1.41,2.14-2.9,4.24-4.42,6.32.01-.05.02-.09.04-.14,5.85-22.62,7.33-46.39,4-69.53-.32-2.13-.71-4.38-1.18-6.49-1.25-5.2-8.66-4.77-9.29.54-.62,6.23-1.67,12.4-3.24,18.43-3.31,12.66-8.8,24.97-16.65,35.47.06-6.7-1.11-13.44-3.15-19.77-1.3-3.93-6.81-4.33-8.64-.57-1.34,2.76-2.86,5.43-4.56,7.98-2.29,3.45-5.12,6.51-8.43,9-3.07,2.31-6.04,3.83-9.69,5.11-7.05,2.46-14.52,3.68-21.98,3.73-14.93.08-29.96-4.54-41.96-13.48-1.8-1.34-3.53-2.77-5.17-4.3-2.95-2.73-7.37-5.89-10.46-3.31-1.34,1.12-1.78,2.96-2.2,4.66-2.92,11.89-8.54,23.11-16.32,32.56,6.16-23.53,7.41-48.33,3.66-72.36-.54-3.43-2.25-7.75-5.71-7.52-3.44.24-4.56,4.66-4.93,8.09-1.94,17.99-8.66,35.44-19.29,50.09-.16-5.72-.92-11.41-2.26-16.97-.58-2.41-1.67-5.2-4.09-5.74-3.16-.71-5.43,2.84-7.02,5.66-8.57,15.22-26.65,23.61-44.11,23.32-17.46-.29-34.13-8.27-47.62-19.36-2.48-2.04-5.85-4.29-8.59-2.62-1.76,1.08-2.32,3.33-2.8,5.34-2.81,11.7-8.35,22.73-16.05,31.98,6.22-23.81,7.4-48.91,3.44-73.2-.41-2.51-1.23-5.44-3.63-6.25-4.18-1.4-6.57,4.61-7.07,8.99-1.98,17.53-8.61,34.51-19.02,48.75-.13-6.28-1.08-12.54-2.82-18.57-.33-1.16-.74-2.38-1.65-3.17-3.08-2.69-7.26,1.6-9.33,5.12-10.68,18.18-30.33,30.8-51.3,32.96-3.59.37-7.56.61-10.09,3.17.56,2.35,3.63,2.88,6.04,2.81,22.61-.6,44.78-11.1,59.58-28.2-.62,7.06-1.24,14.12-1.86,21.18-.09,1-.17,2.07.27,2.98,1.51,3.15,6.32,1.15,8.81-1.31,11.17-11.02,19.75-24.66,24.85-39.5.13,20.61-3.84,41.24-11.63,60.32-.85,2.09-1.77,4.27-1.57,6.52s1.94,4.54,4.2,4.48c1.62-.04,2.95-1.22,4.11-2.35,14.13-13.77,25.39-30.45,32.88-48.7,13.61,11.95,31.65,18.72,49.76,18.68s36.12-6.89,49.68-18.9c-.91,5.27-1.83,10.54-2.74,15.81-.33,1.93-.59,4.15.7,5.61,2.29,2.59,6.51.27,8.94-2.19,10.98-11.07,19.43-24.63,24.53-39.36.04,21.36-4.18,42.73-12.34,62.47-.97,2.36-1.93,5.3-.28,7.25,2.39,2.82,6.93.31,9.53-2.33,13.21-13.42,23.76-29.45,30.84-46.9-.36.88,9.22,6.62,10.25,7.23,3.68,2.17,7.53,4.05,11.51,5.6,8.05,3.14,16.5,4.78,25.1,5.33l.29.02c1.77.11,3.6.17,5.46.17,16.46,0,32.45-5.33,44.27-17.12.69-.69,1.33-1.46,2.06-2.11.36,1.75.18,3.89.04,5.67-.23,3.73-1.02,7.5-2.41,10.93-.67,1.56-.47,3.41.67,4.82,1.73,2.17,4.95,2.31,6.95.43l.28-.23.52-.45c2.28-2.01,4.39-4.21,6.38-6.47,8.76-10.05,15.35-21.85,19.82-34.39-.04,6.13-.4,12.26-1.06,18.34-1.77,15.97-5.83,31.68-12.21,46.43-2.06,4.78,3.89,8.91,7.66,5.24l.8-.8c.44-.43,1.8-1.91,2.23-2.34,11.73-12.87,24.54-29.21,30.24-46.53,2.97,2.49,7.48,5.8,13.43,8.95.01,0,.02.01.03.02,6.18,3.77,12.84,6.57,19.67,7.37.03,0,.06,0,.09,0,1.37,0,2.94.67,4.3.89,1.51.25,3.04.45,4.57.64,3.23.4,6.47.63,9.72.66,6.39.06,12.8-.63,18.98-2.24,10.83-2.83,21.06-8.64,28.5-17.08.04,1.94-.03,3.87-.03,5.81-.23,3.73-1.02,7.5-2.41,10.93-.67,1.56-.47,3.41.67,4.82,1.74,2.17,4.95,2.31,6.95.43l.28-.23.52-.45c2.28-2.01,4.39-4.21,6.38-6.47,8.76-10.05,15.35-21.85,19.82-34.39-.04,6.13-.4,12.26-1.06,18.34-1.77,15.97-5.83,31.68-12.2,46.43-2.06,4.78,3.89,8.91,7.66,5.24l.79-.8c.44-.43,1.8-1.91,2.23-2.34,11.69-12.83,24.46-29.1,30.18-46.36,3.29,2.72,8.36,6.39,15.11,9.74,5.6,3.22,11.57,5.59,17.68,6.38,4.45,1.05,9.26,1.81,14.45,2.13,9.9.6,20.03-.45,29.37-3.88,8.53-3.14,16.63-8.37,22.46-15.41.12,1.97.12,3.94,0,5.9-.23,3.73-1.02,7.5-2.41,10.93-.67,1.56-.47,3.41.66,4.82,1.74,2.17,4.95,2.31,6.95.43l.28-.23.52-.45c2.28-2.01,4.39-4.21,6.38-6.47,8.76-10.05,15.35-21.85,19.82-34.39-.04,6.13-.4,12.26-1.06,18.34-1.77,15.97-5.83,31.68-12.21,46.43-2.06,4.78,3.89,8.91,7.66,5.24l.79-.8c.44-.43,1.8-1.91,2.23-2.34,11.92-13.09,24.97-29.75,30.51-47.39,9.32,8.15,20.81,15.79,32.86,17.19,6.98.42,7.81-9.46.96-10.29Z"/>
  </g>
</svg>