<?xml version="1.0" encoding="UTF-8"?>
<svg id="Layer_2" data-name="Layer 2" xmlns="http://www.w3.org/2000/svg" viewBox="0 0 743.2 171.33">
  <defs>
    <style>
      .cls-1 {
        fill: #000216;
      }
    </style>
  </defs>
  <g id="Layer_1-2" data-name="Layer 1">
    <path class="cls-1" d="M246.74,93.51s-.06,0-.1-.01c-12.8-1.29-28.73-10.45-46.08-26.49l-1.22-1.18c-3.14-3.22-7.79-4.34-12.16-2.93-4.37,1.41-7.49,5.05-8.14,9.51-1.71,10.49-6.23,20.69-11,29.3,4.43-27.38,4.77-55.38.91-82.22-.53-3.58-1.17-7.09-1.86-10.17,0-.03-.01-.05-.02-.08-1.38-5.77-6.45-9.55-12.32-9.22-5.86.34-10.45,4.7-11.15,10.59,0,.03,0,.06-.01.1-.94,9.46-2.55,18.62-4.78,27.21-3.85,14.71-9.59,28.57-16.84,40.73-.83-5.69-2.18-11.44-4.04-17.21-1.51-4.58-5.63-7.75-10.48-8.07-4.85-.32-9.33,2.28-11.44,6.62-1.94,4.01-4.16,7.89-6.61,11.55-16.38,24.73-47.41,41.07-81,42.64C3.72,114.3.1,117.87,0,122.51c-.1,4.68,3.38,8.43,8.09,8.73.06,0,.12,0,.17,0,10.08.26,20.54-.89,31.94-3.5,22.61-5.02,43.09-16.3,58.79-32.21-.01.29-.03.59-.05.88-.33,5.32-1.47,10.52-3.29,15.03-1.72,4.06-1.07,8.71,1.69,12.12,2.05,2.56,5.11,4.17,8.4,4.4,3.3.23,6.58-.91,9.02-3.15l.33-.27s.04-.03.06-.05l.83-.72c3.32-2.93,6.62-6.28,10.12-10.26,7.74-8.88,14.51-18.73,20.25-29.45-.05.49-.1.97-.15,1.46-2.68,24.16-8.79,47.38-18.14,69.03-2.3,5.33-.58,11.33,4.18,14.61,2.11,1.45,4.46,2.16,6.78,2.16,3.01,0,5.98-1.19,8.36-3.51.02-.02.04-.04.06-.06l1.18-1.19c.42-.42,1.1-1.14,2.08-2.18.55-.58,1.06-1.13,1.32-1.39.05-.05.09-.09.13-.14,22.35-24.53,37.12-46.51,44.96-66.95,16.54,13.36,32.34,20.99,47.04,22.7.09.01.18.02.27.02,8.23.49,13.08-5.37,13.63-11.41.55-6.06-3.16-12.71-11.31-13.7Z"/>
    <g>
      <g>
        <path class="cls-1" d="M283.87,128.66l14.05-87.58h16.81l21.8,52.39,21.8-52.39h16.81l14.05,87.58h-20.22l-6.96-52.26-21.93,52.26h-7.09l-21.93-52.26-6.96,52.26h-20.22Z"/>
        <path class="cls-1" d="M460.75,112.11h-33.09l-6.7,16.54h-21.01l35.32-87.58h18.51l34.53,87.58h-21.01l-6.57-16.54ZM455.23,96.62l-10.77-29.41-10.9,29.41h21.67Z"/>
        <path class="cls-1" d="M520.56,41.08v87.58h-20.22V41.08h20.22Z"/>
        <path class="cls-1" d="M582.47,62.48c-6.57-5.91-12.21-6.3-14.71-6.3-2.76,0-6.17.39-8.54,3.02-1.31,1.31-2.23,3.28-2.23,5.51,0,2.1.66,3.68,1.97,4.86,2.1,1.97,5.12,2.76,11.03,4.99l6.57,2.49c3.81,1.44,8.53,3.41,11.95,6.7,5.12,4.86,6.43,11.16,6.43,16.28,0,9.06-3.15,16.94-7.75,21.67-7.75,8.14-19.04,8.93-24.82,8.93-6.3,0-11.82-.92-17.33-3.68-4.46-2.23-9.59-6.3-12.87-9.59l10.51-14.44c2.23,2.23,5.78,5.25,8.14,6.7,3.41,2.1,6.96,3.15,11.03,3.15,2.63,0,6.3-.52,9.19-3.02,1.71-1.44,3.15-3.81,3.15-7.09,0-2.89-1.18-4.73-3.02-6.3-2.36-1.97-7.75-3.94-10.24-4.86l-7.22-2.5c-4.07-1.44-8.8-3.28-12.21-6.96-4.6-4.86-5.25-11.03-5.25-15.23,0-7.75,2.36-14.31,7.62-19.7,6.17-6.3,13.52-8.01,21.67-8.01,6.04,0,15.76,1.05,26,8.67l-9.06,14.71Z"/>
        <path class="cls-1" d="M630.86,87.82l-31.38-46.75h23.9l17.6,27.18,17.59-27.18h23.9l-31.38,46.75v40.84h-20.22v-40.84Z"/>
        <path class="cls-1" d="M730.73,62.48c-6.57-5.91-12.21-6.3-14.71-6.3-2.76,0-6.17.39-8.53,3.02-1.31,1.31-2.23,3.28-2.23,5.51,0,2.1.66,3.68,1.97,4.86,2.1,1.97,5.12,2.76,11.03,4.99l6.57,2.49c3.81,1.44,8.53,3.41,11.95,6.7,5.12,4.86,6.43,11.16,6.43,16.28,0,9.06-3.15,16.94-7.75,21.67-7.75,8.14-19.04,8.93-24.82,8.93-6.3,0-11.82-.92-17.33-3.68-4.46-2.23-9.59-6.3-12.87-9.59l10.51-14.44c2.23,2.23,5.78,5.25,8.14,6.7,3.41,2.1,6.96,3.15,11.03,3.15,2.63,0,6.3-.52,9.19-3.02,1.71-1.44,3.15-3.81,3.15-7.09,0-2.89-1.18-4.73-3.02-6.3-2.36-1.97-7.75-3.94-10.24-4.86l-7.22-2.5c-4.07-1.44-8.8-3.28-12.21-6.96-4.6-4.86-5.25-11.03-5.25-15.23,0-7.75,2.36-14.31,7.62-19.7,6.17-6.3,13.52-8.01,21.67-8.01,6.04,0,15.76,1.05,26,8.67l-9.06,14.71Z"/>
      </g>
      <g>
        <path class="cls-1" d="M301.8,171.11l-.03-14.09-6.99,11.74h-1.27l-6.99-11.66v14.01h-2.65v-19.34h2.27l8.07,13.6,7.96-13.6h2.27l.03,19.34h-2.65Z"/>
        <path class="cls-1" d="M335.34,168.71v2.4h-14.04v-19.34h13.65v2.4h-10.89v5.94h9.7v2.35h-9.7v6.24h11.27Z"/>
        <path class="cls-1" d="M350.87,151.77h8.15c6.22,0,10.45,3.92,10.45,9.67s-4.23,9.67-10.45,9.67h-8.15v-19.34ZM358.86,168.71c4.78,0,7.85-2.93,7.85-7.27s-3.07-7.27-7.85-7.27h-5.22v14.53h5.22Z"/>
        <path class="cls-1" d="M384.75,151.77h2.76v19.34h-2.76v-19.34Z"/>
        <path class="cls-1" d="M402.79,161.44c0-5.72,4.37-9.89,10.25-9.89,2.98,0,5.58,1.02,7.35,3.01l-1.8,1.74c-1.49-1.57-3.32-2.29-5.44-2.29-4.37,0-7.6,3.15-7.6,7.43s3.23,7.43,7.6,7.43c2.13,0,3.95-.75,5.44-2.32l1.8,1.74c-1.77,1.99-4.37,3.04-7.38,3.04-5.86,0-10.22-4.17-10.22-9.89Z"/>
        <path class="cls-1" d="M447.25,166.28h-10.28l-2.13,4.84h-2.85l8.76-19.34h2.74l8.79,19.34h-2.9l-2.13-4.84ZM446.28,164.07l-4.17-9.48-4.17,9.48h8.35Z"/>
        <path class="cls-1" d="M466.2,151.77h2.76v16.94h10.47v2.4h-13.24v-19.34Z"/>
        <path class="cls-1" d="M524.48,166.28h-10.28l-2.13,4.84h-2.85l8.76-19.34h2.74l8.79,19.34h-2.9l-2.13-4.84ZM523.51,164.07l-4.17-9.48-4.17,9.48h8.35Z"/>
        <path class="cls-1" d="M543.43,151.77h2.76v19.34h-2.76v-19.34Z"/>
        <path class="cls-1" d="M579.76,168.9l1.02-2.16c1.44,1.3,3.9,2.24,6.38,2.24,3.34,0,4.78-1.3,4.78-2.98,0-4.72-11.72-1.74-11.72-8.92,0-2.98,2.32-5.53,7.41-5.53,2.27,0,4.61.61,6.22,1.71l-.91,2.21c-1.69-1.08-3.59-1.58-5.31-1.58-3.29,0-4.7,1.38-4.7,3.07,0,4.73,11.72,1.77,11.72,8.87,0,2.96-2.38,5.5-7.49,5.5-2.96,0-5.86-1-7.41-2.43Z"/>
        <path class="cls-1" d="M616.73,164.43v6.69h-2.74v-6.74l-7.68-12.6h2.96l6.19,10.2,6.22-10.2h2.74l-7.68,12.66Z"/>
        <path class="cls-1" d="M636.07,168.9l1.02-2.16c1.44,1.3,3.9,2.24,6.38,2.24,3.34,0,4.78-1.3,4.78-2.98,0-4.72-11.72-1.74-11.72-8.92,0-2.98,2.32-5.53,7.41-5.53,2.27,0,4.61.61,6.22,1.71l-.91,2.21c-1.69-1.08-3.59-1.58-5.31-1.58-3.29,0-4.7,1.38-4.7,3.07,0,4.73,11.72,1.77,11.72,8.87,0,2.96-2.38,5.5-7.49,5.5-2.96,0-5.86-1-7.41-2.43Z"/>
        <path class="cls-1" d="M669.62,154.17h-6.63v-2.4h16v2.4h-6.63v16.94h-2.74v-16.94Z"/>
        <path class="cls-1" d="M707.09,168.71v2.4h-14.04v-19.34h13.65v2.4h-10.89v5.94h9.7v2.35h-9.7v6.24h11.27Z"/>
        <path class="cls-1" d="M740.55,171.11l-.03-14.09-6.99,11.74h-1.27l-6.99-11.66v14.01h-2.65v-19.34h2.27l8.07,13.6,7.96-13.6h2.27l.03,19.34h-2.65Z"/>
      </g>
    </g>
  </g>
</svg>