<?xml version="1.0" encoding="UTF-8"?>
<svg id="Layer_2" data-name="Layer 2" xmlns="http://www.w3.org/2000/svg" xmlns:xlink="http://www.w3.org/1999/xlink" viewBox="0 0 800 63.82">
  <defs>
    <style>
      .cls-1 {
        fill: url(#linear-gradient);
      }
    </style>
    <linearGradient id="linear-gradient" x1="0" y1="31.91" x2="800" y2="31.91" gradientUnits="userSpaceOnUse">
      <stop offset="0" stop-color="#0487d9"/>
      <stop offset=".51" stop-color="#0398bd"/>
      <stop offset="1" stop-color="#03a6a6"/>
    </linearGradient>
  </defs>
  <g id="Layer_1-2" data-name="Layer 1">
    <path class="cls-1" d="M799.83,43.37c-.17,0-.34,0-.51,0-.28,0-.55,0-.83,0-.38,0-.77,0-1.15,0-.48,0-.97,0-1.45,0-.58,0-1.16,0-1.74-.01-.67,0-1.34,0-2.02-.01-.76,0-1.52,0-2.28-.01-.84,0-1.69-.01-2.53-.01-.93,0-1.85-.01-2.77-.02-1,0-2-.01-3-.02-1.07,0-2.15-.01-3.22-.02-1.14,0-2.28-.01-3.42-.02-1.2,0-160.16-.01-161.36-.02-1.26,0-2.53-.01-3.79-.02-1.32,0-2.64-.01-3.96-.02-1.37,0-2.74-.02-4.11-.02-1.42,0-2.84-.02-4.26-.02-1.46,0-2.93-.02-4.39-.03-1.5,0-3-.02-4.51-.02-1.54,0-3.08-.02-4.62-.03-1.57,0-3.14-.02-4.71-.02-1.6-.01-3.2-.02-4.79-.03-1.62-.01-3.24-.02-4.86-.03-1.64,0-3.28-.02-4.92-.03-1.66,0-3.31-.02-4.97-.03-1.67-.01-3.34-.02-5-.03-1.67,0-3.35-.02-5.02-.03-1.68-.01-3.35-.02-5.03-.03-1.67,0-3.35-.02-5.03-.03-1.67-.01-3.34-.02-5.02-.03-1.66,0-3.33-.02-4.99-.03-1.65,0-3.3-.02-4.95-.03-1.63-.01-3.27-.02-4.9-.03-1.61,0-3.22-.02-4.83-.03-1.59,0-3.17-.02-4.76-.03-1.56,0-3.11-.02-4.67-.02-1.53-.01-3.05-.02-4.57-.03-1.49,0-2.97-.02-4.46-.02-1.45,0-2.89-.02-4.34-.02-1.4,0-2.8-.02-4.2-.02-1.35,0-2.7-.02-4.06-.02-1.3,0-2.59-.02-3.89-.02-1.24,0-2.48-.01-3.72-.02-1.18,0-2.36-.01-3.54-.02-1.11,0-2.23-.01-3.34-.02-1.04,0-2.09-.01-3.13-.02-.97,0-1.94-.01-2.91-.02-.89,0-1.79-.01-2.68-.02-.9,0-1.81-.03-2.71-.03-1.46,0-2.93,0-4.39,0-8.17.01-16.17-2.24-22.9-6.93-4.24-2.95-7.26-6.98-10.98-10.43,0,0-.45-.44-.45-.44-1.17-1.2-2.9-1.62-4.53-1.09-1.63.52-2.79,1.88-3.03,3.54-.07.42-.15.85-.24,1.27-.76,3.46-2.27,6.79-3.86,9.64,1.65-10.2,1.78-20.63.34-30.63-.2-1.33-.44-2.64-.69-3.79,0,0,0-.02,0-.03-.51-2.15-2.4-3.56-4.59-3.43-2.18.13-3.89,1.75-4.15,3.94,0,.01,0,.02,0,.04-.35,3.53-.95,6.94-1.78,10.13-1.43,5.48-3.57,10.64-6.27,15.17-.31-2.12-.81-4.26-1.5-6.41-.56-1.7-2.1-2.88-3.9-3.01-1.81-.12-3.48.85-4.26,2.47-.73,1.49-1.55,2.94-2.46,4.3-.35.53-.72,1.04-1.1,1.55-1.3,1.71-2.77,3.28-4.38,4.7-1.65,1.46-3.44,2.75-5.33,3.88-.29.17-.57.34-.86.5-6.14,3.47-12.98,5.06-20.01,5.05-1.46,0-2.93,0-4.39,0-.9,0-1.81.02-2.71.03-.89,0-1.79.01-2.68.02-.97,0-1.94.01-2.91.02-1.04,0-2.09.01-3.13.02-1.11,0-2.23.01-3.34.02-1.18,0-2.36.01-3.54.02-1.24,0-2.48.01-3.72.02-1.3,0-2.59.02-3.89.02-1.35,0-2.7.01-4.06.02-1.4,0-2.8.02-4.2.02-1.45,0-2.89.02-4.34.02-1.49,0-2.97.02-4.46.02-1.53,0-3.05.02-4.57.03-1.56,0-3.11.02-4.67.02-1.59.01-3.17.02-4.76.03-1.61.01-3.22.02-4.83.03-1.63.01-3.27.02-4.9.03-1.65,0-3.3.02-4.95.03-1.66,0-3.33.02-4.99.03-1.67.01-3.34.02-5.02.03-1.68,0-3.35.02-5.03.03-1.68.01-3.35.02-5.03.03-1.67,0-3.35.02-5.02.03-1.67.01-3.33.02-5,.03-1.66,0-3.31.02-4.97.03-1.64.01-3.28.02-4.92.03-1.62.01-3.24.02-4.86.03-1.6,0-3.2.02-4.79.03-1.57,0-3.14.02-4.71.02-1.54.01-3.08.02-4.62.03-1.5,0-3.01.02-4.51.02-1.46.01-2.93.02-4.39.03-1.42,0-2.84.02-4.26.02-1.37,0-2.74.01-4.11.02-1.32,0-2.64.02-3.96.02-1.26,0-2.53.02-3.79.02-1.2,0-160.16.01-161.36.02-1.14,0-2.28.01-3.42.02-1.07,0-2.15.01-3.22.02-1,0-2,.01-3,.02-.92,0-1.85.01-2.77.02-.84,0-1.69,0-2.53.01-.76,0-1.52,0-2.28.01-.67,0-1.34,0-2.02.01-.58,0-1.16,0-1.74.01-.48,0-.97,0-1.45,0-.38,0-.77,0-1.15,0-.28,0-.55,0-.83,0-.17,0-.34,0-.51,0h-.17v4.38c.14,0,.29,0,.43,0,.74,0,1.48,0,2.22.01,1.32,0,2.64.02,3.96.02,1.84.01,3.68.02,5.52.03,2.31.01,4.61.02,6.92.04,2.71.02,5.43.03,8.14.05,3.07.02,163.89.04,166.95.05l10.09.06c3.6.02,7.2.04,10.8.06,3.78.02,7.56.04,11.35.06,3.91.02,7.82.05,11.73.07,3.98.02,7.95.05,11.93.07,3.99.02,7.98.05,11.97.07,3.94.02,7.89.05,11.83.07,3.84.02,7.69.05,11.53.07,3.69.02,7.37.04,11.06.06,3.47.02,6.94.04,10.42.06,3.2.02,6.4.04,9.6.06l8.62.05c2.49.01,4.98.03,7.47.04,2.05.01,4.1.02,6.14.04,1.55,0,3.1.02,4.65.02,1,0,1.99.01,2.99.02,4.6.03,9.04-.21,13.54-1.24,8.42-1.87,16.05-6.07,21.9-12,0,.11-.01.22-.02.33-.12,1.98-.55,3.92-1.23,5.6-.64,1.51-.39,3.24.63,4.51.76.96,1.9,1.55,3.13,1.64,1.23.09,2.45-.34,3.36-1.17l.12-.1s.01-.01.02-.02l.31-.27c1.24-1.09,2.47-2.34,3.77-3.82,2.88-3.31,5.41-6.97,7.55-10.97-.02.18-.04.36-.06.55-1,9-3.27,17.65-6.76,25.71-.85,1.99-.21,4.22,1.56,5.44.79.54,1.66.8,2.53.8,1.12,0,2.23-.44,3.11-1.31l.02-.02.44-.44c.16-.15.41-.42.78-.81.2-.21.39-.42.49-.52.02-.02.03-.04.05-.05,4.48-4.91,8.14-9.55,11.02-13.98,2.44-3.74,4.33-7.34,5.67-10.81.02-.05.04-.1.06-.15.1.08.2.16.3.24,5.79,5.72,13.28,9.79,21.52,11.62,4.5,1.03,8.95,1.27,13.54,1.24,1,0,1.99-.01,2.99-.02,1.55,0,3.1-.02,4.65-.02,2.05-.01,4.1-.02,6.14-.04,2.49-.02,4.98-.03,7.47-.04l8.62-.05,9.6-.06c3.47-.02,6.94-.04,10.42-.06,3.69-.02,7.38-.04,11.06-.06,3.84-.02,7.69-.04,11.53-.07,3.94-.02,7.89-.04,11.84-.07,3.99-.02,7.98-.04,11.97-.07,3.98-.02,7.95-.05,11.93-.07,3.91-.02,7.82-.05,11.73-.07,3.78-.02,7.57-.04,11.35-.06,3.6-.02,7.2-.04,10.8-.06,3.36-.02,6.73-.04,10.09-.06,3.07-.02,163.88-.04,166.95-.05,2.71-.01,5.43-.03,8.14-.05,2.31-.01,4.61-.03,6.92-.04,1.84-.01,3.68-.02,5.52-.03,1.32,0,2.64-.02,3.96-.02.74,0,1.48,0,2.22-.01.14,0,.29,0,.43,0v-4.38h-.17Z"/>
  </g>
</svg>