<?xml version="1.0" encoding="UTF-8"?>
<svg id="Layer_2" data-name="Layer 2" xmlns="http://www.w3.org/2000/svg" viewBox="0 0 258.1 171.33">
  <defs>
    <style>
      .cls-1 {
        fill: #000216;
      }
    </style>
  </defs>
  <g id="Layer_1-2" data-name="Layer 1">
    <path class="cls-1" d="M246.74,93.51s-.06,0-.1-.01c-12.8-1.29-28.73-10.45-46.08-26.49l-1.22-1.18c-3.14-3.22-7.79-4.34-12.16-2.93-4.37,1.41-7.49,5.05-8.14,9.51-1.71,10.49-6.23,20.69-11,29.3,4.43-27.38,4.77-55.38.91-82.22-.53-3.58-1.17-7.09-1.86-10.17,0-.03-.01-.05-.02-.08-1.38-5.77-6.45-9.55-12.32-9.22-5.86.34-10.45,4.7-11.15,10.59,0,.03,0,.06-.01.1-.94,9.46-2.55,18.62-4.78,27.21-3.85,14.71-9.59,28.57-16.84,40.73-.83-5.69-2.18-11.44-4.04-17.21-1.51-4.58-5.63-7.75-10.48-8.07-4.85-.32-9.33,2.28-11.44,6.62-1.94,4.01-4.16,7.89-6.61,11.55-16.38,24.73-47.41,41.07-81,42.64C3.72,114.3.1,117.87,0,122.51c-.1,4.68,3.38,8.43,8.09,8.73.06,0,.12,0,.17,0,10.08.26,20.54-.89,31.94-3.5,22.61-5.02,43.09-16.3,58.79-32.21-.01.29-.03.59-.05.88-.33,5.32-1.47,10.52-3.29,15.03-1.72,4.06-1.07,8.71,1.69,12.12,2.05,2.56,5.11,4.17,8.4,4.4,3.3.23,6.58-.91,9.02-3.15l.33-.27s.04-.03.06-.05l.83-.72c3.32-2.93,6.62-6.28,10.12-10.26,7.74-8.88,14.51-18.73,20.25-29.45-.05.49-.1.97-.15,1.46-2.68,24.16-8.79,47.38-18.14,69.03-2.3,5.33-.58,11.33,4.18,14.61,2.11,1.45,4.46,2.16,6.78,2.16,3.01,0,5.98-1.19,8.36-3.51.02-.02.04-.04.06-.06l1.18-1.19c.42-.42,1.1-1.14,2.08-2.18.55-.58,1.06-1.13,1.32-1.39.05-.05.09-.09.13-.14,22.35-24.53,37.12-46.51,44.96-66.95,16.54,13.36,32.34,20.99,47.04,22.7.09.01.18.02.27.02,8.23.49,13.08-5.37,13.63-11.41.55-6.06-3.16-12.71-11.31-13.7Z"/>
  </g>
</svg>