<?xml version="1.0" encoding="UTF-8"?>
<svg id="Layer_2" data-name="Layer 2" xmlns="http://www.w3.org/2000/svg" viewBox="0 0 459.33 132.23">
  <defs>
    <style>
      .cls-1 {
        fill: #000216;
      }
    </style>
  </defs>
  <g id="Layer_1-2" data-name="Layer 1">
    <g>
      <g>
        <path class="cls-1" d="M0,89.55L14.05,1.97h16.81l21.8,52.39L74.45,1.97h16.81l14.05,87.58h-20.22l-6.96-52.26-21.93,52.26h-7.09l-21.93-52.26-6.96,52.26H0Z"/>
        <path class="cls-1" d="M176.88,73.01h-33.09l-6.7,16.54h-21.01L151.4,1.97h18.51l34.53,87.58h-21.01l-6.57-16.54ZM171.36,57.51l-10.77-29.41-10.9,29.41h21.67Z"/>
        <path class="cls-1" d="M236.69,1.97v87.58h-20.22V1.97h20.22Z"/>
        <path class="cls-1" d="M298.6,23.37c-6.57-5.91-12.21-6.3-14.71-6.3-2.76,0-6.17.39-8.54,3.02-1.31,1.31-2.23,3.28-2.23,5.51,0,2.1.66,3.68,1.97,4.86,2.1,1.97,5.12,2.76,11.03,4.99l6.57,2.49c3.81,1.44,8.53,3.41,11.95,6.7,5.12,4.86,6.43,11.16,6.43,16.28,0,9.06-3.15,16.94-7.75,21.67-7.75,8.14-19.04,8.93-24.82,8.93-6.3,0-11.82-.92-17.33-3.68-4.46-2.23-9.59-6.3-12.87-9.59l10.51-14.44c2.23,2.23,5.78,5.25,8.14,6.7,3.41,2.1,6.96,3.15,11.03,3.15,2.63,0,6.3-.52,9.19-3.02,1.71-1.44,3.15-3.81,3.15-7.09,0-2.89-1.18-4.73-3.02-6.3-2.36-1.97-7.75-3.94-10.24-4.86l-7.22-2.5c-4.07-1.44-8.8-3.28-12.21-6.96-4.6-4.86-5.25-11.03-5.25-15.23,0-7.75,2.36-14.31,7.62-19.7,6.17-6.3,13.52-8.01,21.67-8.01,6.04,0,15.76,1.05,26,8.67l-9.06,14.71Z"/>
        <path class="cls-1" d="M346.99,48.72L315.61,1.97h23.9l17.6,27.18,17.59-27.18h23.9l-31.38,46.75v40.84h-20.22v-40.84Z"/>
        <path class="cls-1" d="M446.86,23.37c-6.57-5.91-12.21-6.3-14.71-6.3-2.76,0-6.17.39-8.53,3.02-1.31,1.31-2.23,3.28-2.23,5.51,0,2.1.66,3.68,1.97,4.86,2.1,1.97,5.12,2.76,11.03,4.99l6.57,2.49c3.81,1.44,8.53,3.41,11.95,6.7,5.12,4.86,6.43,11.16,6.43,16.28,0,9.06-3.15,16.94-7.75,21.67-7.75,8.14-19.04,8.93-24.82,8.93-6.3,0-11.82-.92-17.33-3.68-4.46-2.23-9.59-6.3-12.87-9.59l10.51-14.44c2.23,2.23,5.78,5.25,8.14,6.7,3.41,2.1,6.96,3.15,11.03,3.15,2.63,0,6.3-.52,9.19-3.02,1.71-1.44,3.15-3.81,3.15-7.09,0-2.89-1.18-4.73-3.02-6.3-2.36-1.97-7.75-3.94-10.24-4.86l-7.22-2.5c-4.07-1.44-8.8-3.28-12.21-6.96-4.6-4.86-5.25-11.03-5.25-15.23,0-7.75,2.36-14.31,7.62-19.7,6.17-6.3,13.52-8.01,21.67-8.01,6.04,0,15.76,1.05,26,8.67l-9.06,14.71Z"/>
      </g>
      <g>
        <path class="cls-1" d="M17.93,132.01l-.03-14.09-6.99,11.74h-1.27l-6.99-11.66v14.01H0v-19.34h2.27l8.07,13.6,7.96-13.6h2.27l.03,19.34h-2.65Z"/>
        <path class="cls-1" d="M51.48,129.6v2.4h-14.04v-19.34h13.65v2.4h-10.89v5.94h9.7v2.35h-9.7v6.24h11.27Z"/>
        <path class="cls-1" d="M67,112.66h8.15c6.22,0,10.45,3.92,10.45,9.67s-4.23,9.67-10.45,9.67h-8.15v-19.34ZM74.99,129.6c4.78,0,7.85-2.93,7.85-7.27s-3.07-7.27-7.85-7.27h-5.22v14.53h5.22Z"/>
        <path class="cls-1" d="M100.88,112.66h2.76v19.34h-2.76v-19.34Z"/>
        <path class="cls-1" d="M118.92,122.34c0-5.72,4.37-9.89,10.25-9.89,2.98,0,5.58,1.02,7.35,3.01l-1.8,1.74c-1.49-1.57-3.32-2.29-5.44-2.29-4.37,0-7.6,3.15-7.6,7.43s3.23,7.43,7.6,7.43c2.13,0,3.95-.75,5.44-2.32l1.8,1.74c-1.77,1.99-4.37,3.04-7.38,3.04-5.86,0-10.22-4.17-10.22-9.89Z"/>
        <path class="cls-1" d="M163.38,127.17h-10.28l-2.13,4.84h-2.85l8.76-19.34h2.74l8.79,19.34h-2.9l-2.13-4.84ZM162.41,124.96l-4.17-9.48-4.17,9.48h8.35Z"/>
        <path class="cls-1" d="M182.33,112.66h2.76v16.94h10.47v2.4h-13.24v-19.34Z"/>
        <path class="cls-1" d="M240.61,127.17h-10.28l-2.13,4.84h-2.85l8.76-19.34h2.74l8.79,19.34h-2.9l-2.13-4.84ZM239.64,124.96l-4.17-9.48-4.17,9.48h8.35Z"/>
        <path class="cls-1" d="M259.56,112.66h2.76v19.34h-2.76v-19.34Z"/>
        <path class="cls-1" d="M295.9,129.8l1.02-2.16c1.44,1.3,3.9,2.24,6.38,2.24,3.34,0,4.78-1.3,4.78-2.98,0-4.72-11.72-1.74-11.72-8.92,0-2.98,2.32-5.53,7.41-5.53,2.27,0,4.61.61,6.22,1.71l-.91,2.21c-1.69-1.08-3.59-1.58-5.31-1.58-3.29,0-4.7,1.38-4.7,3.07,0,4.73,11.72,1.77,11.72,8.87,0,2.96-2.38,5.5-7.49,5.5-2.96,0-5.86-1-7.41-2.43Z"/>
        <path class="cls-1" d="M332.87,125.32v6.69h-2.74v-6.74l-7.68-12.6h2.96l6.19,10.2,6.22-10.2h2.74l-7.68,12.66Z"/>
        <path class="cls-1" d="M352.21,129.8l1.02-2.16c1.44,1.3,3.9,2.24,6.38,2.24,3.34,0,4.78-1.3,4.78-2.98,0-4.72-11.72-1.74-11.72-8.92,0-2.98,2.32-5.53,7.41-5.53,2.27,0,4.61.61,6.22,1.71l-.91,2.21c-1.69-1.08-3.59-1.58-5.31-1.58-3.29,0-4.7,1.38-4.7,3.07,0,4.73,11.72,1.77,11.72,8.87,0,2.96-2.38,5.5-7.49,5.5-2.96,0-5.86-1-7.41-2.43Z"/>
        <path class="cls-1" d="M385.75,115.07h-6.63v-2.4h16v2.4h-6.63v16.94h-2.74v-16.94Z"/>
        <path class="cls-1" d="M423.22,129.6v2.4h-14.04v-19.34h13.65v2.4h-10.89v5.94h9.7v2.35h-9.7v6.24h11.27Z"/>
        <path class="cls-1" d="M456.68,132.01l-.03-14.09-6.99,11.74h-1.27l-6.99-11.66v14.01h-2.65v-19.34h2.27l8.07,13.6,7.96-13.6h2.27l.03,19.34h-2.65Z"/>
      </g>
    </g>
  </g>
</svg>